<svg width="745" height="748" viewBox="0 0 745 748" fill="none" xmlns="http://www.w3.org/2000/svg">
<g clip-path="url(#clip0_602:108)">
<path d="M71.629 629.347L65.069 603.475C53.4379 598.546 41.538 594.276 29.426 590.687L28.598 602.711L25.24 589.464C10.219 585.17 0 583.281 0 583.281C0 583.281 13.8 635.77 42.754 675.898L76.488 681.824L50.281 685.603C53.9231 689.985 57.8371 694.134 62 698.025C104.115 737.117 151.024 755.053 166.773 738.085C182.522 721.117 161.148 675.673 119.033 636.585C105.977 624.466 89.576 614.741 73.158 607.085L71.629 629.347Z" fill="#F2F2F2"/>
<path d="M134.015 601.245L141.773 575.707C134.365 565.475 126.385 555.669 117.873 546.336L110.949 556.201L114.921 543.125C104.28 531.689 96.5089 524.79 96.5089 524.79C96.5089 524.79 81.1939 576.857 85.2339 626.174L111.049 648.684L86.6569 638.372C87.5104 644.007 88.7174 649.583 90.2709 655.066C106.117 710.3 137.002 749.901 159.254 743.517C181.506 737.133 186.7 687.182 170.854 631.948C165.942 614.825 156.928 598.022 146.831 582.983L134.015 601.245Z" fill="#F2F2F2"/>
<path d="M742.066 747.077H24.0801C22.5431 747.077 21.2981 746.531 21.2981 745.859C21.2981 745.187 22.5431 744.64 24.0801 744.64H742.066C743.602 744.64 744.848 745.186 744.848 745.859C744.848 746.532 743.602 747.077 742.066 747.077Z" fill="#3F3D56"/>
<path d="M564.677 489.461C565.167 489.686 565.639 489.949 566.087 490.249L610.94 471.106L612.541 459.29L630.462 459.181L629.403 486.279L570.204 501.935C570.079 502.346 569.93 502.75 569.756 503.143C568.9 504.969 567.524 506.502 565.8 507.549C564.076 508.595 562.081 509.109 560.065 509.026C558.05 508.942 556.105 508.265 554.473 507.08C552.841 505.894 551.596 504.253 550.894 502.362C550.192 500.471 550.064 498.415 550.527 496.452C550.99 494.489 552.022 492.706 553.495 491.328C554.967 489.95 556.814 489.037 558.804 488.705C560.793 488.373 562.836 488.636 564.677 489.461V489.461Z" fill="#FFB8B8"/>
<path d="M636.98 735.021H624.72L618.888 687.733L636.982 687.734L636.98 735.021Z" fill="#FFB8B8"/>
<path d="M615.963 731.518H639.607V746.405H601.076C601.076 742.456 602.644 738.67 605.436 735.878C608.228 733.086 612.015 731.518 615.963 731.518Z" fill="#2F2E41"/>
<path d="M684.66 731.557L672.459 732.759L662.018 686.271L680.025 684.497L684.66 731.557Z" fill="#FFB8B8"/>
<path d="M663.401 730.131L686.931 727.813L688.39 742.629L650.045 746.406C649.854 744.46 650.047 742.496 650.614 740.625C651.182 738.754 652.112 737.013 653.353 735.502C654.593 733.991 656.119 732.739 657.843 731.817C659.567 730.896 661.456 730.323 663.401 730.131Z" fill="#2F2E41"/>
<path d="M640.393 409.135C653.957 409.135 664.954 398.138 664.954 384.574C664.954 371.009 653.957 360.013 640.393 360.013C626.828 360.013 615.832 371.009 615.832 384.574C615.832 398.138 626.828 409.135 640.393 409.135Z" fill="#FFB8B8"/>
<path d="M621.98 725.458C620.927 725.461 619.906 725.091 619.098 724.415C618.291 723.738 617.748 722.798 617.565 721.761C611.22 686.535 590.478 571.355 589.981 568.165C589.971 568.092 589.965 568.018 589.966 567.943V559.355C589.965 559.043 590.063 558.738 590.245 558.483L592.985 554.645C593.116 554.461 593.286 554.309 593.485 554.2C593.683 554.092 593.903 554.03 594.129 554.02C609.751 553.288 660.913 551.142 663.385 554.23C665.867 557.333 664.99 566.736 664.789 568.59L664.799 568.783L687.784 715.778C687.964 716.951 687.675 718.147 686.98 719.108C686.285 720.069 685.239 720.717 684.069 720.913L669.713 723.278C668.644 723.45 667.548 723.232 666.626 722.665C665.704 722.097 665.016 721.217 664.688 720.186C660.247 705.997 645.358 658.268 640.198 639.799C640.166 639.682 640.092 639.581 639.991 639.514C639.889 639.448 639.767 639.42 639.647 639.437C639.527 639.454 639.417 639.514 639.338 639.606C639.259 639.698 639.216 639.816 639.218 639.938C639.476 657.543 640.099 702.461 640.314 717.975L640.337 719.645C640.346 720.777 639.931 721.87 639.174 722.71C638.416 723.55 637.37 724.075 636.244 724.182L622.4 725.439C622.26 725.452 622.119 725.458 621.98 725.458Z" fill="#2F2E41"/>
<path d="M624.805 418.792C620.519 421.34 617.954 426.023 616.482 430.787C613.757 439.609 612.117 448.729 611.598 457.947L610.042 485.547L590.787 558.717C607.476 572.838 617.102 569.628 639.568 558.078C662.033 546.528 664.6 561.929 664.6 561.929L669.092 499.671L675.511 431.639C674.07 429.904 672.439 428.336 670.649 426.964C664.716 422.351 657.814 419.145 650.462 417.587C643.11 416.028 635.501 416.159 628.207 417.969L624.805 418.792Z" fill="#009579"/>
<path d="M618.551 504.239C619.069 504.434 619.57 504.669 620.051 504.943L664.4 482.746L665.136 470.72L683.429 469.459L684.41 496.872L625.144 516.471C624.66 518.547 623.556 520.426 621.978 521.858C620.4 523.291 618.423 524.209 616.311 524.491C614.198 524.773 612.05 524.405 610.151 523.436C608.253 522.468 606.695 520.944 605.683 519.068C604.672 517.192 604.256 515.052 604.49 512.934C604.724 510.815 605.598 508.819 606.995 507.209C608.392 505.599 610.246 504.453 612.31 503.922C614.374 503.392 616.551 503.502 618.551 504.239Z" fill="#FFB8B8"/>
<path d="M675.19 431.95C686.101 435.801 688.023 477.524 688.023 477.524C675.186 470.463 659.782 482.017 659.782 482.017C659.782 482.017 656.573 471.105 652.721 456.985C651.559 453.013 651.419 448.811 652.317 444.771C653.215 440.731 655.12 436.984 657.856 433.878C657.856 433.878 664.278 428.096 675.19 431.95Z" fill="#009579"/>
<path d="M662.415 391.069C659.355 388.621 655.18 393.071 655.18 393.071L652.732 371.037C652.732 371.037 637.431 372.87 627.638 370.426C617.846 367.981 616.316 379.301 616.316 379.301C615.811 374.728 615.708 370.12 616.01 365.53C616.621 360.021 624.578 354.513 638.655 350.841C652.732 347.168 660.076 363.082 660.076 363.082C669.869 367.977 665.475 393.517 662.415 391.069Z" fill="#2F2E41"/>
</g>
<defs>
<clipPath id="clip0_602:108">
<rect width="744.848" height="747.077" fill="white"/>
</clipPath>
</defs>
</svg>
